<?xml version="1.0" standalone="no"?>
<!DOCTYPE svg PUBLIC "-//W3C//DTD SVG 20010904//EN"
 "http://www.w3.org/TR/2001/REC-SVG-20010904/DTD/svg10.dtd">
<svg version="1.0" xmlns="http://www.w3.org/2000/svg"
 width="2000.000000pt" height="2000.000000pt" viewBox="0 0 2000.000000 2000.000000"
 preserveAspectRatio="xMidYMid meet">
<metadata>
Created by potrace 1.16, written by Peter Selinger 2001-2019
</metadata>
<g transform="translate(0.000000,2000.000000) scale(0.100000,-0.100000)"
fill="#000000" stroke="none">
<path d="M9720 17510 c0 -20 7 -20 420 -20 413 0 420 0 420 20 0 20 -7 20
-420 20 -413 0 -420 0 -420 -20z"/>
<path d="M9720 17330 c0 -20 7 -20 420 -20 413 0 420 0 420 20 0 20 -7 20
-420 20 -413 0 -420 0 -420 -20z"/>
<path d="M9720 17150 c0 -20 7 -20 420 -20 413 0 420 0 420 20 0 20 -7 20
-420 20 -413 0 -420 0 -420 -20z"/>
<path d="M14085 16993 c-351 -75 -630 -347 -717 -699 -26 -106 -30 -312 -9
-409 18 -84 77 -238 114 -299 43 -71 129 -171 201 -234 208 -182 521 -261 802
-203 363 75 651 360 732 726 19 88 21 299 3 380 -67 306 -263 552 -538 677
-122 55 -238 78 -387 77 -75 0 -161 -7 -201 -16z m370 -178 c88 -18 232 -89
310 -152 122 -99 212 -238 256 -398 31 -109 31 -276 1 -388 -57 -211 -213
-399 -405 -491 -117 -56 -185 -70 -332 -70 -94 0 -148 5 -195 18 -263 72 -467
276 -542 543 -29 103 -30 276 -4 378 72 273 281 485 550 555 88 23 262 26 361
5z"/>
<path d="M14272 16622 c-12 -12 -28 -18 -39 -16 -25 7 -95 -45 -133 -98 -31
-42 -38 -87 -24 -157 5 -25 9 -29 18 -17 6 8 40 22 75 30 35 9 90 32 122 52
38 23 66 33 78 29 28 -8 100 -81 113 -113 11 -25 12 -24 19 33 13 107 -12 153
-107 196 -34 15 -71 40 -81 55 l-20 27 -21 -21z"/>
<path d="M14090 15955 c-113 -31 -190 -62 -217 -87 -22 -21 -63 -114 -63 -144
0 -43 118 -145 225 -195 57 -27 202 -62 214 -53 6 5 -63 504 -69 503 -3 0 -43
-11 -90 -24z"/>
<path d="M14386 15952 c-3 -15 -17 -112 -31 -217 -14 -104 -27 -205 -30 -222
-6 -32 -5 -33 27 -33 117 0 287 87 380 195 26 31 27 33 13 78 -28 94 -45 118
-99 142 -28 12 -91 34 -141 49 -49 15 -95 29 -102 31 -6 2 -14 -8 -17 -23z"/>
<path d="M14246 15883 c5 -10 10 -107 12 -215 l4 -198 24 0 24 0 1 128 c1 125
3 176 13 260 l6 42 -46 0 c-40 0 -45 -2 -38 -17z"/>
<path d="M9720 16970 c0 -20 6 -20 421 -20 395 0 420 1 417 18 -3 16 -32 17
-421 20 -412 2 -417 2 -417 -18z"/>
<path d="M5811 16654 c-19 -24 -21 -40 -21 -183 0 -104 4 -164 13 -181 16 -31
54 -41 90 -23 l27 14 0 184 c0 179 -1 184 -22 199 -33 23 -64 19 -87 -10z"/>
<path d="M12603 16581 c-10 -11 -74 -111 -142 -223 -69 -112 -171 -278 -228
-370 l-104 -167 -56 62 c-213 234 -237 252 -276 209 -38 -42 -25 -63 149 -252
169 -184 187 -197 226 -167 9 6 51 68 94 137 144 234 231 375 301 485 118 187
142 236 132 265 -18 44 -65 54 -96 21z"/>
<path d="M4970 16310 c-41 -41 -29 -65 104 -198 120 -120 126 -125 158 -118
40 8 46 14 54 54 7 32 2 38 -118 158 -133 133 -157 145 -198 104z"/>
<path d="M6552 16207 c-96 -97 -122 -128 -122 -150 0 -32 32 -67 62 -67 24 0
254 220 269 258 9 24 -3 60 -25 74 -35 24 -62 7 -184 -115z"/>
<path d="M4622 15467 c-26 -27 -28 -54 -6 -85 15 -21 20 -22 192 -22 97 0 182
4 188 8 13 9 34 46 34 62 0 6 -11 22 -25 35 -24 25 -27 25 -193 25 -163 0
-169 -1 -190 -23z"/>
<path d="M6716 15469 c-29 -23 -33 -54 -10 -87 15 -21 21 -22 194 -22 149 0
181 3 194 16 27 26 24 71 -6 97 -17 15 -42 17 -183 17 -149 0 -164 -2 -189
-21z"/>
<path d="M13068 15253 c-121 -122 -209 -218 -213 -233 -11 -46 14 -82 148
-218 140 -142 167 -162 218 -162 28 0 56 24 243 210 l211 210 -200 200 -200
200 -207 -207z"/>
<path d="M5072 14727 c-72 -73 -122 -132 -122 -143 0 -35 29 -64 64 -64 28 0
48 16 154 123 72 73 122 132 122 143 0 35 -29 64 -64 64 -28 0 -48 -16 -154
-123z"/>
<path d="M6447 14832 c-38 -42 -24 -69 101 -194 107 -107 121 -118 154 -118
42 0 61 19 61 61 0 25 -19 50 -119 150 -101 101 -123 119 -150 119 -17 0 -38
-8 -47 -18z"/>
<path d="M15910 14690 c-316 -5 -318 -6 -364 -61 -26 -30 -26 -32 -26 -205 l0
-174 678 0 677 0 3 158 c3 144 1 161 -19 204 -12 26 -30 49 -41 52 -11 2 -17
9 -14 14 9 15 -20 22 -33 9 -8 -8 -11 -8 -11 0 0 12 -275 13 -850 3z"/>
<path d="M8181 14469 c-126 -16 -271 -72 -368 -142 -23 -16 -40 -34 -36 -40 3
-6 1 -7 -5 -3 -30 18 -179 -162 -237 -287 -59 -127 -78 -230 -72 -382 3 -74
13 -156 22 -190 17 -62 69 -177 103 -230 l19 -30 -73 -205 c-40 -113 -69 -206
-65 -208 4 -1 65 24 137 56 71 32 159 71 196 86 l67 28 83 -35 c152 -65 276
-84 430 -67 190 22 350 100 489 239 204 204 287 472 230 746 -74 357 -351 615
-714 664 -87 12 -113 12 -206 0z m-208 -781 c34 -18 46 -39 47 -81 0 -82 -91
-117 -151 -58 -20 20 -29 39 -29 61 0 64 76 109 133 78z m358 2 c23 -13 49
-61 49 -90 0 -36 -53 -80 -95 -80 -90 0 -120 122 -40 168 25 14 61 15 86 2z
m370 -19 c58 -58 23 -151 -56 -151 -48 0 -95 45 -95 90 0 43 47 90 90 90 22 0
41 -9 61 -29z"/>
<path d="M2485 14120 l-369 -5 -15 -26 c-13 -24 -13 -29 2 -53 l17 -26 688 -1
c378 -1 698 -3 712 -4 38 -4 68 15 75 46 8 35 -11 66 -44 72 -30 6 -535 5
-1066 -3z"/>
<path d="M15897 14052 l-59 -27 7 -40 c3 -21 8 -41 9 -43 2 -2 22 6 45 17 22
12 43 21 46 21 3 0 5 -85 5 -190 l0 -190 50 0 50 0 0 240 0 240 -47 -1 c-29
-1 -72 -12 -106 -27z"/>
<path d="M16220 14035 l0 -45 105 0 c58 0 105 -2 105 -5 0 -3 -42 -87 -92
-188 -51 -100 -94 -185 -96 -188 -1 -3 24 -5 55 -5 l58 1 94 190 c65 132 95
205 99 238 l5 47 -167 0 -166 0 0 -45z"/>
<path d="M3160 13540 l0 -380 65 0 65 0 0 380 0 380 -65 0 -65 0 0 -380z"/>
<path d="M13000 13800 c-72 -15 -171 -70 -226 -124 -216 -217 -147 -586 136
-720 l65 -31 408 -3 407 -3 0 -279 0 -280 41 29 c113 82 213 57 258 -65 67
-178 -41 -464 -204 -540 -27 -13 -60 -24 -73 -24 -28 0 -25 -17 16 -93 29 -54
63 -87 126 -120 36 -19 56 -22 171 -22 117 0 135 2 178 24 29 14 64 43 88 73
71 91 69 57 69 967 0 757 -1 818 -18 850 -37 73 -46 75 -315 83 -434 12 -561
42 -746 176 -46 34 -108 71 -138 82 -64 24 -179 33 -243 20z"/>
<path d="M2650 13350 l0 -190 65 0 65 0 0 190 0 190 -65 0 -65 0 0 -190z"/>
<path d="M2380 13265 l0 -105 65 0 65 0 0 105 0 105 -65 0 -65 0 0 -105z m118
3 l-3 -93 -52 -3 -53 -3 0 95 0 96 55 0 56 0 -3 -92z"/>
<path d="M5090 12540 l0 -830 25 -6 c13 -3 100 -4 192 -2 126 4 180 9 215 22
58 21 63 29 44 58 -18 29 -96 418 -96 482 0 43 4 53 38 86 53 54 166 75 236
45 18 -8 19 0 14 293 l-5 302 514 0 515 0 -7 47 c-20 132 -96 238 -213 295
l-67 33 -702 3 -703 2 0 -830z"/>
<path d="M11163 13128 c-12 -6 -29 -26 -38 -45 -15 -31 -15 -36 2 -71 20 -41
55 -59 97 -48 70 17 89 94 37 147 -31 30 -60 35 -98 17z"/>
<path d="M11518 13124 c-56 -30 -64 -90 -19 -135 35 -35 77 -38 114 -9 49 39
42 116 -14 145 -35 18 -47 18 -81 -1z"/>
<path d="M11868 13125 c-33 -18 -52 -72 -39 -108 23 -59 99 -76 145 -31 70 71
-18 188 -106 139z"/>
<path d="M2132 13039 c-46 -17 -53 -77 -13 -99 13 -6 269 -10 733 -10 l713 -1
18 22 c20 25 22 49 4 73 -12 17 -56 18 -726 19 -391 1 -720 -1 -729 -4z"/>
<path d="M16795 12741 c-176 -51 -316 -166 -394 -326 -41 -83 -61 -173 -61
-280 -1 -431 436 -728 840 -572 74 28 115 52 113 65 -2 6 3 9 11 6 20 -8 120
89 169 164 99 151 128 300 92 474 -47 227 -233 419 -460 473 -83 20 -235 18
-310 -4z m326 -84 c228 -78 379 -284 379 -515 0 -64 -22 -167 -47 -221 -26
-57 -100 -158 -133 -181 -17 -12 -27 -27 -24 -33 4 -7 4 -9 -1 -5 -4 4 -13 4
-19 -2 -27 -21 -136 -69 -193 -84 -275 -71 -575 109 -648 389 -18 73 -19 203
-1 270 48 182 204 341 383 390 80 22 227 18 304 -8z"/>
<path d="M17209 12311 c-69 -38 -157 -85 -195 -105 -40 -21 -60 -36 -48 -36
11 0 25 -5 31 -11 16 -16 373 176 373 202 0 31 -28 23 -161 -50z"/>
<path d="M6186 12525 c-26 -24 -34 -63 -20 -100 8 -19 55 -45 84 -45 31 0 80
53 80 85 0 37 -50 85 -88 85 -17 0 -40 -10 -56 -25z"/>
<path d="M13220 12500 c-40 -40 -34 -104 14 -135 51 -34 126 12 126 77 0 65
-94 104 -140 58z"/>
<path d="M9640 12140 l0 -40 365 0 365 0 0 40 0 40 -365 0 -365 0 0 -40z"/>
<path d="M9170 11804 c-91 -30 -99 -35 -114 -77 -8 -23 -18 -63 -21 -89 l-6
-48 220 0 221 0 0 25 c0 46 -22 127 -40 145 -18 18 -118 56 -126 48 -2 -3 -10
-48 -18 -102 -17 -125 -31 -137 -22 -18 7 83 6 92 -10 92 -15 0 -16 -10 -12
-80 3 -45 1 -83 -4 -86 -4 -3 -8 6 -8 20 0 14 -5 59 -11 101 -11 73 -16 79
-49 69z"/>
<path d="M18243 11730 c-205 -37 -371 -186 -444 -397 -31 -92 -27 -259 11
-357 9 -26 9 -26 -35 -26 -41 0 -45 -2 -45 -25 0 -24 3 -25 58 -25 53 0 60 -2
70 -25 7 -14 12 -28 12 -30 0 -2 -26 -3 -57 -3 -82 -1 -85 -1 -78 -12 3 -5 41
-10 84 -10 71 0 101 -9 101 -32 0 -4 -40 -8 -90 -8 -53 0 -90 -4 -90 -10 0 -6
43 -10 108 -10 96 0 111 -2 127 -20 18 -20 17 -20 -113 -20 -101 0 -130 -3
-127 -12 4 -10 40 -12 144 -10 137 3 139 3 198 -26 75 -38 150 -59 238 -68 85
-7 209 20 293 66 l56 30 146 -145 c140 -139 148 -145 187 -145 73 0 127 71
103 136 -6 16 -72 91 -147 166 l-137 137 37 78 c46 100 61 182 54 287 -13 184
-124 361 -283 450 -105 59 -266 86 -381 66z m216 -206 c175 -56 285 -239 251
-419 -22 -117 -111 -229 -220 -278 -56 -25 -171 -34 -238 -17 -28 6 -76 28
-109 48 l-58 37 45 5 c37 4 46 9 48 27 3 21 -1 22 -70 25 l-73 3 -23 46 c-37
75 -48 148 -34 229 14 84 36 129 90 191 95 107 251 148 391 103z"/>
<path d="M3570 11468 c-41 -70 -50 -85 -83 -136 l-29 -43 61 -55 c44 -40 71
-75 98 -130 33 -67 38 -87 43 -177 4 -56 8 -90 8 -74 2 24 22 41 22 18 0 -5
28 -9 63 -10 35 0 83 -3 108 -7 24 -3 50 -6 57 -7 6 0 13 -12 13 -26 1 -14 5
-3 10 24 12 65 3 170 -23 268 -23 89 -96 218 -161 286 -49 51 -135 121 -148
121 -5 0 -23 -24 -39 -52z"/>
<path d="M8990 11435 l0 -35 690 0 690 0 0 35 0 35 -690 0 -690 0 0 -35z"/>
<path d="M9640 11150 l645 -5 -645 -5 -645 -5 648 -3 c569 -2 647 0 647 13 0
13 -78 15 -647 13 l-648 -3 645 -5z"/>
<path d="M17366 11064 c-4 -9 -12 -14 -21 -10 -21 8 -91 -57 -98 -90 -6 -33 6
-83 17 -66 4 7 16 12 27 12 11 0 42 11 69 25 27 14 55 25 61 25 6 0 27 -16 45
-36 l34 -35 0 46 c0 35 -6 51 -25 70 -13 14 -31 25 -40 25 -9 0 -26 11 -39 25
-20 22 -25 23 -30 9z"/>
<path d="M9000 11055 c0 -13 72 -15 590 -15 518 0 590 2 590 15 0 13 -72 15
-590 15 -518 0 -590 -2 -590 -15z"/>
<path d="M16132 11021 c-79 -20 -117 -110 -85 -201 7 -19 32 35 33 70 l0 26
99 -1 99 0 5 -43 c6 -59 23 -74 37 -36 14 35 6 105 -15 138 -27 41 -107 63
-173 47z"/>
<path d="M8990 10925 l0 -35 690 0 690 0 0 35 0 35 -690 0 -690 0 0 -35z"/>
<path d="M16550 10925 l0 -25 220 0 220 0 0 25 0 25 -220 0 -220 0 0 -25z"/>
<path d="M8698 10753 c-67 -35 -68 -35 -63 -71 17 -138 16 -173 -6 -208 -23
-37 -109 -107 -146 -118 -18 -6 -38 12 -128 116 -59 68 -110 122 -114 120 -3
-2 -37 -31 -75 -65 -336 -302 -713 -519 -1096 -632 -86 -25 -236 -45 -340 -45
-87 0 -270 17 -279 26 -3 3 -39 462 -41 522 0 9 -34 12 -135 12 -74 0 -135 -3
-135 -6 0 -3 48 -77 106 -165 58 -89 107 -166 110 -173 2 -6 -23 -54 -56 -106
-32 -52 -60 -103 -60 -112 0 -10 45 -180 100 -379 55 -199 99 -363 97 -365 -1
-1 -69 93 -152 209 -415 583 -765 1073 -775 1085 -9 9 -72 12 -277 10 l-266
-3 -20 -69 -19 -69 58 -58 58 -58 -50 -42 c-95 -81 -350 -345 -438 -454 -185
-230 -368 -538 -460 -773 -119 -305 -164 -629 -137 -997 36 -485 154 -925 373
-1387 l60 -126 27 12 c14 6 144 71 289 144 l262 132 -36 71 c-190 378 -305
792 -335 1210 -33 456 81 810 394 1226 l92 122 3 -1576 2 -1576 34 -37 c47
-52 81 -115 101 -182 l16 -58 383 0 c381 0 383 0 416 -23 18 -12 43 -35 54
-50 21 -28 21 -37 21 -482 0 -444 0 -454 -21 -482 -11 -15 -37 -37 -57 -48
l-37 -20 0 -372 0 -373 -23 0 c-20 0 -23 -4 -20 -27 2 -16 44 -361 93 -768 50
-407 97 -793 105 -858 22 -171 21 -177 -14 -177 l-29 0 -7 -105 c-6 -92 -9
-105 -23 -101 -10 2 -91 15 -181 27 l-164 24 -53 113 c-51 107 -55 113 -81
110 -23 -2 -28 1 -26 17 3 18 101 714 203 1440 22 153 40 286 40 295 0 13 -46
15 -395 15 l-394 0 -5 -35 c-3 -19 -8 -156 -11 -305 -3 -148 -7 -310 -10 -360
-3 -49 -7 -184 -10 -300 -17 -638 -25 -827 -38 -840 -9 -8 -17 -73 -25 -196
-7 -101 -15 -208 -18 -237 l-7 -52 1497 0 1496 0 0 93 0 93 -501 75 -502 75
-50 111 -50 112 -42 -6 -42 -5 -6 938 c-4 517 -7 1430 -7 2029 0 631 -4 1147
-10 1225 -6 74 -33 461 -60 860 -72 1034 -138 1975 -140 1975 0 0 107 0 238 0
282 0 370 14 628 100 429 143 851 395 1219 728 l60 55 -31 38 -31 39 28 23
c17 14 26 30 24 42 -2 11 0 22 5 25 5 3 7 -4 5 -15 -5 -26 3 -25 31 1 13 12
20 28 17 38 -4 13 -3 14 5 1 9 -12 14 -12 31 4 11 10 18 24 14 30 -3 6 -2 8 2
3 5 -4 17 0 27 10 16 15 18 35 18 210 0 106 -3 193 -7 192 -5 0 -38 -16 -75
-36z"/>
<path d="M17240 10666 c-85 -24 -117 -45 -134 -87 -14 -34 -35 -146 -36 -186
0 -10 67 -13 300 -13 l300 0 0 24 c0 47 -29 175 -46 200 -12 19 -38 33 -96 51
-43 14 -83 25 -87 25 -4 0 -16 -63 -26 -141 -10 -77 -22 -142 -26 -145 -6 -4
-4 89 5 201 3 35 0 41 -18 43 -20 1 -21 -2 -19 -126 2 -70 1 -122 -2 -117 -4
11 -34 213 -37 258 -3 30 -10 32 -78 13z"/>
<path d="M9540 10640 l545 -5 -545 -5 -545 -5 548 -3 c481 -2 547 0 547 13 0
13 -66 15 -547 13 l-548 -3 545 -5z"/>
<path d="M16060 10628 c-94 -55 -112 -71 -131 -111 -10 -23 -19 -52 -19 -64
l0 -22 271 0 272 0 -6 41 c-7 56 -51 106 -127 145 -35 18 -64 33 -65 33 -1 0
-8 -38 -15 -85 -7 -47 -17 -88 -22 -91 -4 -3 -13 6 -19 20 -9 19 -9 29 0 39 9
11 8 17 -3 27 -22 17 -38 2 -32 -28 3 -15 -1 -38 -8 -51 -12 -22 -15 -18 -31
72 -10 54 -21 97 -24 96 -3 0 -22 -10 -41 -21z"/>
<path d="M8990 10425 l0 -35 690 0 690 0 0 35 0 35 -690 0 -690 0 0 -35z"/>
<path d="M14020 10397 c-38 -20 -273 -157 -379 -221 -97 -58 -123 -68 -100
-38 13 15 12 16 -3 3 -10 -7 -15 -17 -13 -22 5 -8 -81 -63 -219 -139 -35 -19
-70 -40 -77 -46 -8 -6 -35 -23 -61 -38 l-48 -27 -1 63 -2 63 -8 -85 c-7 -71
-35 -446 -55 -730 -9 -137 -8 -134 -82 -188 -231 -171 -437 -251 -774 -303
-118 -19 -188 -23 -403 -23 -311 -1 -485 18 -768 86 -71 16 -130 28 -133 26
-6 -7 -56 -188 -109 -398 -25 -102 -48 -193 -51 -202 -6 -19 7 -24 181 -63
492 -110 1026 -126 1485 -45 211 38 420 99 533 157 27 13 50 23 52 21 2 -2 -3
-85 -10 -186 -15 -210 -5 -189 -135 -292 -173 -137 -397 -274 -594 -362 -61
-28 -114 -54 -119 -58 -6 -6 72 -178 206 -452 l42 -86 125 58 c111 51 317 161
385 206 l25 17 -5 -54 c-3 -30 -17 -216 -30 -413 -25 -358 -25 -366 -25 -1936
0 -867 -3 -1774 -7 -2014 l-6 -438 -42 5 -41 6 -50 -112 -50 -111 -502 -75
-502 -75 0 -93 0 -93 1496 0 1497 0 -6 52 c-4 28 -12 139 -19 245 -9 146 -15
193 -25 193 -7 0 -13 3 -13 8 0 8 -48 1580 -90 2977 -30 977 -30 983 -30 2992
l0 2012 80 48 c44 26 80 52 80 58 0 5 -9 37 -19 70 l-19 60 -268 3 c-208 1
-275 -1 -294 -11z m-293 -6380 c34 -243 103 -732 153 -1087 50 -355 93 -656
96 -668 4 -22 2 -23 -25 -17 -29 6 -30 5 -84 -107 l-53 -113 -160 -23 c-87
-13 -169 -26 -181 -29 -21 -5 -23 -2 -23 33 0 22 -3 69 -7 106 -6 67 -6 68
-34 68 -24 0 -29 4 -29 26 0 14 61 523 135 1131 74 607 135 1112 135 1121 0 8
3 12 7 8 4 -4 35 -206 70 -449z"/>
<path d="M16174 10336 c-4 -10 -13 -15 -20 -12 -17 7 -83 -50 -95 -81 -5 -13
-6 -36 -3 -51 l6 -29 53 18 c29 10 65 25 80 35 22 14 29 15 51 4 13 -8 33 -27
44 -44 l20 -31 0 53 c0 43 -5 58 -25 77 -13 14 -31 25 -40 25 -9 0 -27 12 -40
26 -22 23 -25 24 -31 10z"/>
<path d="M17288 10273 c-16 -10 -35 -32 -43 -49 -17 -36 -20 -134 -5 -134 13
0 30 43 30 75 0 22 2 23 99 22 l98 -1 9 -45 c11 -56 31 -64 40 -16 9 48 -9
105 -41 135 -35 33 -145 40 -187 13z"/>
<path d="M16550 10195 l0 -25 220 0 220 0 0 25 0 25 -220 0 -220 0 0 -25z"/>
<path d="M17740 10195 l0 -25 220 0 220 0 0 25 0 25 -220 0 -220 0 0 -25z"/>
<path d="M16040 9931 c-91 -30 -108 -41 -125 -83 -13 -33 -34 -145 -35 -185 0
-10 67 -13 300 -13 341 0 308 -11 290 96 -17 98 -36 139 -73 156 -35 17 -148
51 -152 46 -1 -2 -12 -68 -23 -148 l-21 -145 2 128 c2 122 1 127 -18 127 -20
0 -21 -4 -17 -127 2 -71 2 -125 -2 -122 -3 3 -13 57 -21 120 -21 152 -25 169
-38 168 -7 0 -37 -8 -67 -18z"/>
<path d="M17195 9864 c-54 -35 -77 -68 -83 -120 l-5 -44 81 0 c73 0 81 2 75
18 -3 9 -11 23 -16 30 -7 8 -4 18 8 32 17 19 17 20 0 20 -15 0 -16 6 -11 45 4
25 3 45 -1 45 -5 0 -27 -12 -48 -26z"/>
<path d="M17501 9853 c12 -52 12 -53 -12 -53 -19 0 -19 -1 -4 -16 16 -16 16
-28 0 -66 -6 -16 1 -18 74 -18 79 0 81 1 81 24 0 59 -39 114 -102 147 -21 10
-39 19 -42 19 -2 0 0 -17 5 -37z"/>
<path d="M1310 9090 l0 -740 628 2 627 3 2 738 3 737 -165 0 -165 0 0 -40 0
-39 123 -3 122 -3 0 -650 0 -650 -547 -3 -548 -2 0 655 0 655 120 0 120 0 0
40 0 40 -160 0 -160 0 0 -740z"/>
<path d="M1613 9494 c-61 -30 -79 -119 -36 -179 43 -60 153 -55 192 9 66 107
-43 226 -156 170z"/>
<path d="M1900 9390 l0 -40 210 0 210 0 0 40 0 40 -210 0 -210 0 0 -40z"/>
<path d="M16660 9080 c0 -132 -17 -177 -78 -209 l-37 -20 490 0 c417 0 486 2
460 13 -16 7 -41 26 -55 40 -23 26 -25 36 -30 154 l-5 127 -372 3 -373 2 0
-110z"/>
<path d="M1602 9164 c-81 -56 -60 -182 35 -212 35 -11 46 -11 77 2 80 33 100
141 37 198 -25 22 -41 28 -79 28 -27 0 -57 -7 -70 -16z"/>
<path d="M1900 9065 l0 -45 208 2 207 3 0 40 0 40 -207 3 -208 2 0 -45z"/>
<path d="M1620 8837 c-32 -16 -70 -73 -70 -104 0 -38 27 -87 59 -106 57 -34
137 -13 166 43 54 104 -53 219 -155 167z"/>
<path d="M1900 8730 l0 -40 210 0 210 0 0 40 0 40 -210 0 -210 0 0 -40z"/>
<path d="M16610 8290 c0 -16 -1 -30 -3 -30 -31 0 -133 -28 -175 -48 -127 -60
-236 -206 -249 -335 -6 -57 -6 -57 -39 -57 -24 0 -34 -5 -34 -15 0 -10 10 -15
34 -15 33 0 33 0 39 -57 9 -85 64 -189 135 -254 69 -64 127 -94 222 -117 66
-15 70 -18 70 -44 0 -18 5 -28 15 -28 10 0 15 10 15 29 0 28 3 29 63 40 86 15
182 65 245 127 62 63 118 171 127 249 7 51 9 54 39 57 40 4 40 22 1 26 -29 3
-31 6 -43 68 -35 187 -183 332 -370 365 -59 11 -62 12 -62 40 0 19 -5 29 -15
29 -10 0 -15 -10 -15 -30z m2 -100 c-4 -34 -7 -40 -28 -40 -48 0 -134 -42
-189 -91 -58 -54 -100 -128 -111 -198 -6 -40 -8 -41 -45 -41 -25 0 -39 5 -39
13 0 31 33 135 57 179 62 113 213 212 333 217 24 1 25 -2 22 -39z m140 20
c119 -36 205 -112 260 -226 16 -34 31 -84 35 -113 l6 -51 -42 0 c-39 0 -41 2
-41 30 0 133 -167 300 -300 300 -28 0 -30 2 -30 40 0 36 3 40 24 40 13 0 53
-9 88 -20z m-142 -129 l0 -48 -39 -7 c-75 -12 -170 -113 -171 -183 0 -20 -5
-23 -45 -23 -40 0 -45 2 -45 23 0 74 75 188 157 239 31 18 105 45 136 47 4 1
7 -21 7 -48z m169 5 c83 -43 148 -133 165 -228 l7 -38 -44 0 c-44 0 -44 0 -58
47 -21 77 -96 146 -174 163 -25 5 -31 11 -33 39 -5 54 1 60 48 50 23 -5 63
-20 89 -33z m-167 -103 c4 -39 28 -42 28 -4 0 36 9 38 65 12 49 -23 99 -75
114 -120 15 -47 15 -49 -14 -53 -14 -2 -26 -7 -26 -13 0 -5 12 -11 26 -13 29
-4 30 -10 9 -60 -26 -64 -80 -110 -146 -126 -26 -6 -28 -4 -28 25 0 37 -23 35
-28 -3 -3 -24 -6 -25 -38 -18 -66 15 -122 74 -145 152 -7 26 -6 28 22 28 19 0
29 5 29 15 0 9 -9 15 -25 15 -31 0 -33 25 -5 80 21 42 67 81 115 98 43 15 43
15 47 -15z m-328 -235 c21 -138 147 -263 283 -284 42 -6 43 -7 43 -46 l0 -40
-47 7 c-114 16 -251 111 -306 213 -24 44 -57 148 -57 179 0 8 14 13 39 13 38
0 39 -1 45 -42z m116 25 c0 -10 11 -41 24 -70 29 -61 90 -110 148 -119 38 -7
38 -7 38 -54 l0 -48 -42 10 c-131 29 -239 138 -255 258 l-6 40 47 0 c37 0 46
-3 46 -17z m544 -20 c-11 -62 -52 -139 -95 -178 -50 -45 -133 -85 -177 -85
-33 0 -33 0 -30 42 3 38 6 43 33 48 78 17 153 86 174 163 14 47 14 47 58 47
l44 0 -7 -37z m103 -14 c-13 -105 -86 -221 -181 -285 -52 -35 -158 -74 -202
-74 -21 0 -24 5 -24 39 0 38 0 38 45 44 68 10 151 55 200 110 46 50 85 137 85
187 0 28 2 30 41 30 l42 0 -6 -51z"/>
<path d="M2445 7964 c-243 -59 -415 -278 -415 -527 0 -143 55 -273 160 -377
105 -106 233 -160 380 -160 84 0 199 32 273 76 32 18 61 34 65 34 3 0 17 -10
31 -22 l26 -23 -23 27 -24 26 24 24 c72 72 142 210 158 313 38 234 -82 463
-295 565 -128 61 -235 74 -360 44z m197 -135 c313 -66 430 -441 209 -668 -117
-120 -295 -153 -447 -82 -89 41 -147 99 -192 189 -35 72 -37 81 -37 172 0 82
4 103 27 153 54 115 130 184 247 224 74 25 116 28 193 12z"/>
<path d="M2530 7731 c0 -36 -3 -40 -35 -51 -18 -6 -48 -27 -65 -46 -25 -29
-30 -43 -30 -84 0 -65 30 -99 117 -135 38 -16 78 -39 91 -53 21 -22 21 -26 9
-45 -8 -12 -25 -25 -38 -28 -32 -9 -97 0 -132 18 -16 8 -30 13 -31 11 -2 -2
-8 -22 -13 -46 -10 -38 -9 -43 9 -53 11 -6 41 -14 67 -18 45 -6 46 -7 49 -44
3 -35 5 -37 38 -37 33 0 34 1 34 39 0 35 3 40 29 46 16 3 46 21 67 39 34 29
38 38 42 93 4 56 2 62 -28 96 -19 23 -52 44 -88 57 -79 30 -102 46 -102 75 0
44 66 58 142 31 l38 -14 11 40 c13 50 6 59 -55 65 -43 5 -45 7 -48 42 -3 34
-5 36 -40 39 l-38 3 0 -40z"/>
<path d="M10918 7412 l-268 -267 0 -45 0 -45 508 -507 c498 -499 508 -508 547
-508 38 0 47 8 307 268 148 147 271 277 274 290 4 12 3 34 -1 50 -7 27 -210
240 -355 372 l-75 68 -40 -34 -40 -33 127 -128 128 -128 -233 -233 -232 -232
-373 373 -373 373 233 232 233 233 174 -175 173 -175 27 31 c14 17 30 38 35
46 6 11 -42 65 -206 228 l-214 214 -44 0 -45 0 -267 -268z m1050 -948 c12 -14
22 -34 22 -45 0 -24 -52 -79 -74 -79 -57 0 -101 63 -75 109 18 31 57 53 84 45
11 -3 30 -17 43 -30z"/>
<path d="M15550 7076 c-125 -27 -229 -109 -285 -222 -27 -54 -29 -68 -30 -169
0 -104 2 -114 32 -176 40 -82 111 -150 201 -192 61 -29 76 -32 162 -32 86 0
101 3 162 32 90 42 160 110 201 192 30 62 32 72 32 176 0 102 -2 114 -30 170
-56 114 -165 197 -293 224 -63 13 -80 13 -152 -3z m159 -57 c167 -36 291 -221
261 -390 -30 -162 -155 -276 -315 -287 -84 -5 -132 7 -205 50 -146 88 -204
278 -132 431 72 155 225 232 391 196z"/>
<path d="M15610 6905 c0 -25 -4 -35 -16 -35 -28 0 -74 -56 -74 -90 0 -49 15
-66 90 -106 52 -27 72 -43 77 -62 7 -30 -5 -53 -38 -69 -23 -11 -37 -10 -109
8 -9 3 -16 -5 -18 -18 -3 -19 3 -24 42 -34 41 -10 46 -14 46 -40 0 -22 5 -29
20 -29 16 0 20 7 20 30 0 22 6 33 23 39 41 16 72 59 72 102 0 48 -30 81 -107
118 -49 24 -53 29 -53 61 0 45 29 61 86 49 22 -5 44 -7 50 -4 21 14 7 35 -31
46 -34 11 -40 16 -40 41 0 21 -5 28 -20 28 -16 0 -20 -7 -20 -35z"/>
<path d="M3078 6932 l-97 -98 252 -251 252 -252 100 95 99 95 -255 255 -254
254 -97 -98z"/>
<path d="M4460 4899 c-64 -26 -113 -104 -103 -165 8 -56 42 -112 83 -137 34
-21 43 -22 340 -22 168 0 317 3 332 7 73 21 126 110 114 192 -8 54 -68 120
-117 130 -52 10 -622 6 -649 -5z m625 -124 c14 -13 25 -29 25 -35 0 -6 -11
-22 -25 -35 l-24 -25 -271 0 c-257 0 -271 1 -290 20 -27 27 -26 65 2 84 19 14
64 16 291 16 l268 0 24 -25z"/>
</g>
</svg>
